<svg width="21" height="21" viewBox="0 0 21 21" fill="none" xmlns="http://www.w3.org/2000/svg">
<path fill-rule="evenodd" clip-rule="evenodd" d="M10.0757 0.276299C10.2803 -0.0920998 10.7919 -0.0920998 10.9965 0.276299L12.9533 3.79933C13.1579 4.16773 12.9021 4.62828 12.4929 4.62828H11.4304V9.80921H16.5475V8.6041C16.5475 8.1787 16.9905 7.91284 17.3449 8.12554L20.7342 10.1595C21.0886 10.3722 21.0886 10.904 20.7342 11.1167L17.3449 13.1508C16.9905 13.3635 16.5475 13.0976 16.5475 12.6721V11.7434H11.4304V16.3717H12.4929C12.9021 16.3717 13.1579 16.8323 12.9533 17.2007L10.9965 20.7237C10.7919 21.0921 10.2803 21.0921 10.0757 20.7237L8.11888 17.2007C7.91426 16.8323 8.17002 16.3717 8.57934 16.3717H9.56962V11.7434H4.45252V12.6721C4.45252 13.0976 4.00946 13.3635 3.65505 13.1508L0.265807 11.1167C-0.0886023 10.904 -0.0886023 10.3722 0.265807 10.1595L3.65505 8.12554C4.00946 7.91284 4.45252 8.1787 4.45252 8.6041V9.80921H9.56962V4.62828H8.57934C8.17002 4.62828 7.91426 4.16773 8.11888 3.79933L10.0757 0.276299Z" fill="black"/>
</svg>
