<svg width="27" height="22" viewBox="0 0 27 22" fill="none" xmlns="http://www.w3.org/2000/svg">
<path fill-rule="evenodd" clip-rule="evenodd" d="M4.82894 1.73948C4.10321 2.00827 3.4391 2.86449 3.43909 4.14459V10.3677H23.6644C25.0663 10.3677 26.2028 11.5042 26.2028 12.9061C26.2028 13.8625 25.6739 14.6953 24.8927 15.1281V17.0822C24.8927 19.7956 22.6931 21.9953 19.9797 21.9953H6.22318C3.50979 21.9953 1.31015 19.7956 1.31015 17.0822V15.1281C0.528895 14.6953 0 13.8625 0 12.9061C0 11.7605 0.758908 10.7922 1.80141 10.4764V4.14458C1.80143 2.31315 2.77501 0.753805 4.26015 0.203752C5.67621 -0.320717 7.26417 0.166986 8.51696 1.67075C10.0228 1.70448 11.2306 2.9382 11.2257 4.45099L11.2238 5.02342C11.2217 5.63908 10.721 6.13653 10.1054 6.1345L6.79124 6.1236C6.17558 6.12157 5.67814 5.62084 5.68016 5.00518L5.68205 4.43275C5.68501 3.53216 6.11714 2.73331 6.78414 2.2292C6.03806 1.58927 5.32881 1.55434 4.82894 1.73948ZM9.91428 4.82373L9.91552 4.44668C9.91818 3.63942 9.26592 2.98285 8.45866 2.9802C7.6514 2.97754 6.99484 3.6298 6.99218 4.43706L6.99094 4.81411L9.91428 4.82373ZM16.2949 15.5265H2.94783V17.0822C2.94783 18.8912 4.41425 20.3576 6.22318 20.3576H19.9797C21.7886 20.3576 23.255 18.8912 23.255 17.0822V15.5265H21.5355V18.366C21.5355 19.1213 20.6618 19.5412 20.0721 19.0693L18.9152 18.1438L17.7583 19.0693C17.1685 19.5412 16.2949 19.1213 16.2949 18.366V15.5265ZM17.4413 15.5265V17.8549L18.3525 17.1259C18.6815 16.8627 19.1489 16.8627 19.4779 17.1259L20.3891 17.8549V15.5265H17.4413ZM2.5384 12.0054H23.6644C24.1619 12.0054 24.5651 12.4087 24.5651 12.9061C24.5651 13.4036 24.1619 13.8069 23.6644 13.8069H2.5384C2.04094 13.8069 1.63768 13.4036 1.63768 12.9061C1.63768 12.4087 2.04094 12.0054 2.5384 12.0054Z" fill="black"/>
</svg>
