<svg width="30" height="21" viewBox="0 0 30 21" fill="none" xmlns="http://www.w3.org/2000/svg">
<path fill-rule="evenodd" clip-rule="evenodd" d="M1.16022 0C1.80099 0 2.32044 0.498592 2.32044 1.11364V11.6347C2.42888 11.6208 2.53953 11.6136 2.65191 11.6136H10.2763C10.2989 11.5068 10.3237 11.4007 10.3507 11.2955C11.2415 7.82432 14.5064 5.25 18.3978 5.25H19.0608C22.9521 5.25 26.217 7.82432 27.1078 11.2955C27.1349 11.4007 27.1597 11.5068 27.1823 11.6136H27.5138C28.8869 11.6136 30 12.682 30 14C30 14.9786 29.3864 15.8196 28.5083 16.1878V19.8864C28.5083 20.5014 27.9888 21 27.3481 21C26.7073 21 26.1878 20.5014 26.1878 19.8864V16.3864H2.65191C2.53953 16.3864 2.42888 16.3792 2.32044 16.3653V19.5682C2.32044 20.1832 1.80099 20.6818 1.16022 20.6818C0.519449 20.6818 0 20.1832 0 19.5682V1.11364C0 0.498592 0.519449 0 1.16022 0ZM2.32044 14.7293C2.42195 14.7718 2.53406 14.7955 2.65191 14.7955H27.5138C27.9715 14.7955 28.3425 14.4393 28.3425 14C28.3425 13.5607 27.9715 13.2045 27.5138 13.2045H27.3481H10.1105H2.65191C2.53406 13.2045 2.42195 13.2282 2.32044 13.2707V14.7293ZM8.78451 6.36364C8.78451 7.33014 7.96824 8.11364 6.96131 8.11364C5.95438 8.11364 5.1381 7.33014 5.1381 6.36364C5.1381 5.39714 5.95438 4.61364 6.96131 4.61364C7.96824 4.61364 8.78451 5.39714 8.78451 6.36364ZM10.442 6.36364C10.442 8.20877 8.88363 9.70455 6.96131 9.70455C5.03899 9.70455 3.48064 8.20877 3.48064 6.36364C3.48064 4.5185 5.03899 3.02273 6.96131 3.02273C8.88363 3.02273 10.442 4.5185 10.442 6.36364ZM19.0608 7.15909H18.3978C15.6143 7.15909 13.2526 8.89218 12.4199 11.2955H25.0386C24.206 8.89218 21.8442 7.15909 19.0608 7.15909Z" fill="black"/>
</svg>
